<svg width="64" height="64" viewBox="0 0 64 64" fill="none" xmlns="http://www.w3.org/2000/svg">
<g clip-path="url(#clip0_50_19)">
<path d="M32 0C14.328 0 0 14.326 0 32C0 49.674 14.328 64 32 64C49.672 64 64 49.672 64 32C64 14.328 49.672 0 32 0ZM21.56 35.468C21.56 36.748 20.52 37.788 19.24 37.788C17.96 37.788 16.92 36.748 16.92 35.468V26.188C16.92 24.908 17.96 23.868 19.24 23.868C20.52 23.868 21.56 24.906 21.56 26.188V35.468ZM41.28 42.428H38.96V48.228C38.96 49.508 37.92 50.548 36.64 50.548C35.36 50.548 34.32 49.508 34.32 48.228V42.428H29.68V48.228C29.68 49.508 28.64 50.548 27.36 50.548C26.08 50.548 25.04 49.508 25.04 48.228V42.428H22.72V25.026H41.282V42.428H41.28ZM22.72 23.868C22.72 20.794 24.222 18.076 26.522 16.388L25.33 14.324C25.172 14.046 25.266 13.692 25.542 13.532C25.822 13.372 26.174 13.468 26.336 13.744L27.498 15.758C28.832 15.012 30.366 14.586 32 14.586C33.636 14.586 35.17 15.012 36.504 15.754L37.666 13.742C37.826 13.462 38.182 13.368 38.458 13.528C38.738 13.69 38.832 14.044 38.672 14.322L37.48 16.386C39.78 18.074 41.282 20.792 41.282 23.866H22.72V23.868ZM47.08 35.468C47.08 36.748 46.04 37.788 44.76 37.788C43.48 37.788 42.44 36.748 42.44 35.468V26.188C42.44 24.908 43.48 23.868 44.76 23.868C46.04 23.868 47.08 24.906 47.08 26.188V35.468Z" fill="url(#paint0_linear_50_19)"/>
<path d="M41.28 42.428H38.96V48.228C38.96 49.508 37.92 50.548 36.64 50.548C35.36 50.548 34.32 49.508 34.32 48.228V42.428H29.68V48.228C29.68 49.508 28.64 50.548 27.36 50.548C26.08 50.548 25.04 49.508 25.04 48.228V42.428H22.72V25.026H41.282V42.428H41.28Z" fill="url(#paint1_linear_50_19)"/>
<path d="M22.72 23.866C22.7207 20.7928 24.2225 18.0756 26.522 16.388L25.33 14.324C25.172 14.046 25.266 13.692 25.542 13.532C25.822 13.372 26.174 13.468 26.336 13.744L27.498 15.758C28.832 15.012 30.366 14.586 32 14.586C33.636 14.586 35.17 15.012 36.504 15.754L37.666 13.742C37.826 13.462 38.182 13.368 38.458 13.528C38.738 13.69 38.832 14.044 38.672 14.322L37.48 16.386C39.78 18.074 41.282 20.792 41.282 23.866H22.72Z" fill="url(#paint2_linear_50_19)"/>
<path d="M47.08 35.468C47.08 36.748 46.04 37.788 44.76 37.788C43.48 37.788 42.44 36.748 42.44 35.468V26.188C42.44 24.908 43.48 23.868 44.76 23.868C46.04 23.868 47.08 24.906 47.08 26.188V35.468Z" fill="url(#paint3_linear_50_19)"/>
<path d="M21.56 35.468C21.56 36.748 20.52 37.788 19.24 37.788C17.96 37.788 16.92 36.748 16.92 35.468V26.188C16.92 24.908 17.96 23.868 19.24 23.868C20.52 23.868 21.56 24.906 21.56 26.188V35.468Z" fill="url(#paint4_linear_50_19)"/>
<path d="M28.5199 20.3859C29.1605 20.3859 29.6799 19.8666 29.6799 19.2259C29.6799 18.5853 29.1605 18.0659 28.5199 18.0659C27.8792 18.0659 27.3599 18.5853 27.3599 19.2259C27.3599 19.8666 27.8792 20.3859 28.5199 20.3859Z" fill="url(#paint5_linear_50_19)"/>
<path d="M35.4798 20.3859C36.1205 20.3859 36.6398 19.8666 36.6398 19.2259C36.6398 18.5853 36.1205 18.0659 35.4798 18.0659C34.8392 18.0659 34.3198 18.5853 34.3198 19.2259C34.3198 19.8666 34.8392 20.3859 35.4798 20.3859Z" fill="url(#paint6_linear_50_19)"/>
</g>
<defs>
<linearGradient id="paint0_linear_50_19" x1="32" y1="0" x2="32" y2="64" gradientUnits="userSpaceOnUse">
<stop stop-color="#0042C2"/>
<stop offset="1" stop-opacity="0"/>
</linearGradient>
<linearGradient id="paint1_linear_50_19" x1="32" y1="0" x2="32" y2="64" gradientUnits="userSpaceOnUse">
<stop offset="0.405" stop-color="white"/>
<stop offset="0.84" stop-color="white" stop-opacity="0"/>
</linearGradient>
<linearGradient id="paint2_linear_50_19" x1="32" y1="0" x2="32" y2="64" gradientUnits="userSpaceOnUse">
<stop offset="0.405" stop-color="white"/>
<stop offset="0.84" stop-color="white" stop-opacity="0"/>
</linearGradient>
<linearGradient id="paint3_linear_50_19" x1="32" y1="0" x2="32" y2="64" gradientUnits="userSpaceOnUse">
<stop offset="0.405" stop-color="white"/>
<stop offset="0.84" stop-color="white" stop-opacity="0"/>
</linearGradient>
<linearGradient id="paint4_linear_50_19" x1="32" y1="0" x2="32" y2="64" gradientUnits="userSpaceOnUse">
<stop offset="0.405" stop-color="white"/>
<stop offset="0.84" stop-color="white" stop-opacity="0"/>
</linearGradient>
<linearGradient id="paint5_linear_50_19" x1="28.5199" y1="18.0659" x2="28.5199" y2="20.3859" gradientUnits="userSpaceOnUse">
<stop stop-color="#0042C2"/>
<stop offset="1" stop-opacity="0"/>
</linearGradient>
<linearGradient id="paint6_linear_50_19" x1="35.4798" y1="18.0659" x2="35.4798" y2="20.3859" gradientUnits="userSpaceOnUse">
<stop stop-color="#0042C2"/>
<stop offset="1" stop-opacity="0"/>
</linearGradient>
<clipPath id="clip0_50_19">
<rect width="64" height="64" fill="white"/>
</clipPath>
</defs>
</svg>
