<svg width="64" height="64" viewBox="0 0 64 64" fill="none" xmlns="http://www.w3.org/2000/svg">
<g clip-path="url(#clip0_50_6)">
<path d="M64 32C64 49.6731 49.6731 64 32 64C14.3269 64 0 49.6731 0 32C0 14.3269 14.3269 0 32 0C49.6731 0 64 14.3269 64 32Z" fill="url(#paint0_linear_50_6)"/>
<path d="M34.2255 13.704C35.7742 11.8831 38.3919 10.5285 40.5519 10.4375C40.8275 12.967 39.8136 15.4999 38.3147 17.3251C36.8135 19.1468 34.3563 20.5661 31.9447 20.3769C31.6169 17.902 32.8321 15.3212 34.2255 13.704ZM46.5142 48.2088C44.7217 50.8376 42.8678 53.4505 39.941 53.5051C37.0607 53.5597 36.1374 51.7935 32.8503 51.7935C29.5598 51.7935 28.5301 53.4505 25.8108 53.5597C22.9852 53.6661 20.8361 50.7206 19.0297 48.1034C15.3386 42.7526 12.5202 32.9732 16.3094 26.3737C18.1858 23.0961 21.5486 21.0228 25.1918 20.9677C27.9671 20.9164 30.5886 22.8446 32.283 22.8446C33.9811 22.8446 37.1633 20.5297 40.5079 20.8695C41.908 20.9274 45.8376 21.4354 48.3619 25.1398C48.1621 25.2711 43.6713 27.8926 43.7255 33.3532C43.7801 39.8761 49.4237 42.0439 49.4894 42.0736C49.4376 42.2269 48.5866 45.169 46.5142 48.2088Z" fill="url(#paint1_linear_50_6)"/>
</g>
<defs>
<linearGradient id="paint0_linear_50_6" x1="32" y1="0" x2="32" y2="64" gradientUnits="userSpaceOnUse">
<stop stop-color="#0042C2"/>
<stop offset="1" stop-color="#4086CD" stop-opacity="0"/>
</linearGradient>
<linearGradient id="paint1_linear_50_6" x1="31.9998" y1="10.4375" x2="31.9998" y2="53.5625" gradientUnits="userSpaceOnUse">
<stop offset="0.45" stop-color="white"/>
<stop offset="1" stop-color="white" stop-opacity="0"/>
</linearGradient>
<clipPath id="clip0_50_6">
<rect width="64" height="64" fill="white"/>
</clipPath>
</defs>
</svg>
