<svg width="48" height="48" viewBox="0 0 48 48" fill="none" xmlns="http://www.w3.org/2000/svg">
<path fill-rule="evenodd" clip-rule="evenodd" d="M34 47H14C11.238 47 9 44.762 9 42V24C9 21.239 11.238 19 14 19H18C18.553 19 19 19.448 19 20C19 20.552 18.553 21 18 21H14C12.344 21 11 22.344 11 24V42C11 43.657 12.344 45 14 45H34C35.657 45 37 43.657 37 42V24C37 22.344 35.657 21 34 21H30C29.447 21 29 20.552 29 20C29 19.448 29.447 19 30 19H34C36.762 19 39 21.239 39 24V42C39 44.762 36.762 47 34 47ZM31.334 10.715L25 4.381V30C25 30.553 24.553 31 24 31C23.447 31 23 30.553 23 30V4.381L16.666 10.715C16.285 11.096 15.667 11.096 15.285 10.715C14.904 10.334 14.904 9.715 15.285 9.334L23.19 1.429C23.222 1.382 23.243 1.328 23.285 1.285C23.48 1.091 23.736 0.998 23.99 1.002C23.994 1.002 23.996 1 24 1C24.004 1 24.007 1.002 24.01 1.002C24.266 0.999 24.521 1.091 24.715 1.285C24.756 1.327 24.775 1.379 24.806 1.425L32.715 9.334C33.096 9.715 33.096 10.334 32.715 10.715C32.333 11.096 31.715 11.096 31.334 10.715Z" fill="white"/>
</svg>
