<svg width="92" height="92" viewBox="0 0 92 92" fill="none" xmlns="http://www.w3.org/2000/svg">
<path d="M46 0C20.6191 0 0 20.6191 0 46C0 54.1582 2.23738 61.7718 5.96875 68.418L0.0742188 89.4609C-0.0199519 89.7977 -0.0242068 90.1532 0.0618782 90.4921C0.147963 90.831 0.321381 91.1414 0.564839 91.3924C0.808298 91.6433 1.11329 91.8261 1.44941 91.9224C1.78553 92.0188 2.14103 92.0253 2.48047 91.9414L24.4219 86.5039C30.8693 89.9459 38.1852 92 46 92C71.3809 92 92 71.3809 92 46C92 20.6191 71.3809 0 46 0ZM46 4C69.2191 4 88 22.7809 88 46C88 69.2191 69.2191 88 46 88C38.556 88 31.5842 86.0593 25.5234 82.668C25.0802 82.4203 24.5593 82.3505 24.0664 82.4727L4.85156 87.2344L10.0039 68.8516C10.0776 68.5918 10.098 68.3198 10.0638 68.0519C10.0295 67.784 9.94139 67.5259 9.80469 67.293C6.12137 61.0472 4 53.7802 4 46C4 22.7809 22.7809 4 46 4ZM29.2852 22C28.0031 22 26.1721 22.477 24.668 24.0977C23.7645 25.0711 20 28.739 20 35.1875C20 41.9105 24.6628 47.7117 25.2266 48.457H25.2305V48.4609C25.177 48.3907 25.9461 49.5044 26.9727 50.8398C27.9993 52.1753 29.4348 53.9293 31.2383 55.8281C34.8452 59.6258 39.9166 64.0148 46.2109 66.6992C49.1096 67.9336 51.3964 68.6788 53.1289 69.2227C56.3397 70.2309 59.2641 70.0776 61.4609 69.7539C63.1053 69.5118 64.9138 68.7222 66.7031 67.5898C68.4925 66.4575 70.2462 65.0494 71.0195 62.9102C71.5735 61.3765 71.8552 59.9592 71.957 58.793C72.008 58.2099 72.0144 57.6952 71.9766 57.2188C71.9386 56.7423 71.9792 56.3773 71.5352 55.6484C70.604 54.1196 69.5495 54.0797 68.4492 53.5352C67.8379 53.2326 66.0973 52.3827 64.3516 51.5508C62.6078 50.7198 61.0978 49.9839 60.168 49.6523C59.5805 49.441 58.8631 49.1367 57.8281 49.2539C56.7931 49.3711 55.7709 50.1179 55.1758 51C54.6117 51.8361 52.3408 54.5167 51.6484 55.3047C51.6392 55.2991 51.6993 55.3268 51.4258 55.1914C50.5695 54.7676 49.5223 54.4073 47.9727 53.5898C46.423 52.7724 44.4845 51.5653 42.3633 49.6953V49.6914C39.2061 46.9119 36.9945 43.4222 36.2969 42.25C36.3439 42.1941 36.2913 42.2618 36.3906 42.1641L36.3945 42.1602C37.1076 41.4578 37.7395 40.619 38.2734 40.0039C39.0305 39.1317 39.3646 38.3629 39.7266 37.6445C40.4479 36.2129 40.0463 34.6375 39.6289 33.8086V33.8047C39.6577 33.862 39.4031 33.3003 39.1289 32.6523C38.8539 32.0025 38.5033 31.1601 38.1289 30.2617C37.3801 28.465 36.5441 26.4498 36.0469 25.2695V25.2656C35.4612 23.8754 34.6688 22.8738 33.6328 22.3906C32.5968 21.9074 31.6816 22.0448 31.6445 22.043H31.6406C30.9013 22.0089 30.0901 22 29.2852 22ZM29.2852 26C30.0562 26 30.8164 26.0094 31.4531 26.0391C32.1081 26.0717 32.0674 26.0744 31.9414 26.0156C31.8134 25.9559 31.9871 25.9366 32.3594 26.8203C32.8462 27.976 33.6863 29.9985 34.4375 31.8008C34.8131 32.7019 35.1646 33.5476 35.4453 34.2109C35.726 34.8742 35.8782 35.2446 36.0547 35.5977V35.6016L36.0586 35.6055C36.2317 35.947 36.2164 35.7283 36.1562 35.8477C35.7342 36.6853 35.6769 36.891 35.25 37.3828C34.6 38.1317 33.9369 38.9668 33.5859 39.3125C33.2789 39.6141 32.7248 40.0841 32.3789 41.0039C32.0324 41.9252 32.1941 43.1891 32.75 44.1328C33.4901 45.3892 35.9288 49.3586 39.7188 52.6953C42.1055 54.7994 44.3291 56.1919 46.1055 57.1289C47.8818 58.0659 49.3286 58.6132 49.6523 58.7734C50.4211 59.1539 51.2613 59.4493 52.2383 59.332C53.2153 59.2147 54.0576 58.622 54.5938 58.0156L54.5977 58.0117C55.3113 57.2027 57.4317 54.7815 58.4492 53.2891C58.4923 53.3043 58.4782 53.2925 58.8164 53.4141V53.418H58.8203C58.9747 53.4729 60.9086 54.3385 62.6328 55.1602C64.3571 55.9818 66.1071 56.8357 66.6758 57.1172C67.4964 57.5233 67.8842 57.7878 67.9844 57.7891C67.9911 57.965 67.998 58.1557 67.9727 58.4453C67.9025 59.2486 67.6878 60.3604 67.2578 61.5508C67.0472 62.1335 65.95 63.3353 64.5664 64.2109C63.1828 65.0866 61.4987 65.705 60.875 65.7969C58.9998 66.0732 56.7733 66.1741 54.3281 65.4062C52.6327 64.8741 50.5186 64.1852 47.7812 63.0195C42.2296 60.6519 37.5112 56.623 34.1406 53.0742C32.4553 51.2998 31.1051 49.648 30.1445 48.3984C29.1857 47.1512 28.7671 46.5021 28.418 46.043L28.4141 46.0391C27.7944 45.2196 24 39.9417 24 35.1875C24 30.156 26.337 28.1829 27.6016 26.8203C28.2654 26.105 28.9912 26 29.2852 26Z" fill="white"/>
</svg>
