<svg width="770" height="263" viewBox="0 0 770 263" fill="none" xmlns="http://www.w3.org/2000/svg">
<path d="M562.585 177.481V95.256H586.869C594.135 95.256 600.573 96.8749 606.183 100.113C611.83 103.35 616.197 107.944 619.284 113.892C622.371 119.841 623.915 126.655 623.915 134.335V138.458C623.915 146.251 622.353 153.103 619.228 159.014C616.141 164.925 611.717 169.48 605.957 172.681C600.234 175.881 593.664 177.481 586.248 177.481H562.585ZM576.873 106.777V166.073H586.191C593.683 166.073 599.425 163.739 603.415 159.071C607.444 154.364 609.496 147.625 609.571 138.853V134.279C609.571 125.356 607.632 118.542 603.754 113.836C599.876 109.13 594.248 106.777 586.869 106.777H576.873Z" fill="#DBDFE8"/>
<path d="M686.205 140.773H652.434V166.073H691.909V177.481H638.146V95.256H691.513V106.777H652.434V129.479H686.205V140.773Z" fill="#DBDFE8"/>
<path d="M732.513 159.579L753.408 95.256H769.107L739.515 177.481H725.68L696.201 95.256H711.844L732.513 159.579Z" fill="#DBDFE8"/>
<path d="M70.1395 157.15L82.7895 95.256H96.9642L77.9893 177.481H64.3228L48.6798 117.45L32.6979 177.481H18.9749L0 95.256H14.1747L26.9376 157.038L42.6372 95.256H54.6094L70.1395 157.15Z" fill="#58B57C"/>
<path d="M155.47 140.773H121.699V166.073H161.174V177.481H107.412V95.256H160.779V106.777H121.699V129.479H155.47V140.773Z" fill="#58B57C"/>
<path d="M172.808 177.481V95.256H200.988C210.287 95.256 217.365 97.1196 222.221 100.847C227.078 104.574 229.507 110.127 229.507 117.506C229.507 121.271 228.49 124.66 226.457 127.672C224.424 130.683 221.45 133.018 217.534 134.674C221.977 135.879 225.403 138.157 227.812 141.507C230.259 144.821 231.483 148.811 231.483 153.48C231.483 161.198 228.998 167.127 224.029 171.269C219.097 175.41 212.019 177.481 202.795 177.481H172.808ZM187.095 140.378V166.073H202.964C207.444 166.073 210.946 164.963 213.468 162.741C215.991 160.52 217.252 157.433 217.252 153.48C217.252 144.933 212.885 140.566 204.15 140.378H187.095ZM187.095 129.874H201.101C205.543 129.874 209.007 128.876 211.492 126.881C214.014 124.848 215.275 121.987 215.275 118.297C215.275 114.231 214.108 111.294 211.774 109.487C209.477 107.68 205.882 106.777 200.988 106.777H187.095V129.874Z" fill="#58B57C"/>
<path fill-rule="evenodd" clip-rule="evenodd" d="M304.524 0H272.838L361.457 198.601L377.22 162.916L304.524 0Z" fill="#DBDFE8"/>
<path fill-rule="evenodd" clip-rule="evenodd" d="M417.622 0H449.308L381.286 151.863L365.522 116.178L365.469 116.058L417.622 0Z" fill="#DBDFE8"/>
<path fill-rule="evenodd" clip-rule="evenodd" d="M356.454 98.493L343.628 69.556L378.571 69.5569L365.745 98.4933L356.454 98.493Z" fill="#58B57C"/>
<path fill-rule="evenodd" clip-rule="evenodd" d="M414.19 98.2286H446.328V98.2375C465.213 98.6586 478.015 114.099 478.015 133.084C478.015 152.07 465.213 169.094 446.328 169.515H382.978L368.666 203.794L368.592 263H398.759V196.458H446.328C481.329 196.458 504.157 168.084 504.157 133.084C504.157 98.0839 481.329 71.2949 446.328 71.2949H426.83L414.19 98.2286Z" fill="#DBDFE8"/>
</svg>
